<svg xmlns="http://www.w3.org/2000/svg" viewBox="320 80 260 285" width="32" height="32">
  <path fill="#000000" d="M453.915 261.025c5.107-5.36 10.17-10.765 15.393-16.009.486-.488 2.133-.265 3.003.14 17.792 8.295 29.069 21.547 31.589 41.521 2.453 19.448-8.033 40.486-25.484 50.2-13.048 7.263-26.689 8.717-40.396 4.584-12.256-3.696-22.357-11.308-29.018-22.896-7.575-13.179-9.024-27.204-4.78-41.36 3.598-11.997 10.844-21.968 22.235-28.228 3.046-1.674 6.176-3.196 10.74-5.546 4.99 5.421 10.264 11.152 15.216 17.2-2.6.79-4.91 1.143-7.147 1.759-11.865 3.265-19.227 10.856-22.357 22.826-2.872 10.983.174 20.53 7.31 28.589 6.316 7.133 15.001 10.733 24.5 9.945 11.085-.92 20.351-5.908 25.749-16.223 5.173-9.885 5.311-20.038.092-29.922-5.597-10.601-15.122-15.294-26.645-16.58"/>
  <path fill="#f00218" d="M548.37 133.647c9.66 6.225 19.021 12.234 28.017 18.01l-13.557 14.245c-72.81-48.998-145.477-49.263-218.41.027l-13.26-13.145c50.684-43.386 138.127-61.45 217.21-19.137"/>
  <path fill="#f00218" d="M462.323 178.692c-17.806-1.58-34.704.961-50.83 7.107-9.692 3.694-18.821 8.947-27.978 13.916-2.925 1.587-4.504 1.42-6.708-.911-3.532-3.735-7.437-7.117-11.253-10.713 51.736-39.973 126.194-39.053 175.988-1.21l-14.008 14.028c-19.224-12.652-40.69-21.253-65.211-22.217m3.877 49.892c-17.922-2.573-31.223-.368-50.407 8.085l-14.569-14.526c34.902-19.35 69.882-19.446 105.665.465-4.78 4.764-9.104 9.29-13.74 13.471-.733.663-2.933-.007-4.342-.433-7.414-2.245-14.791-4.61-22.607-7.062"/>
</svg>
